<svg width="512" height="512" viewBox="0 0 512 512" fill="none" xmlns="http://www.w3.org/2000/svg">
<rect width="512" height="512" rx="96" fill="#1C2520"/>
<g>
<path d="M256 96C178.6 96 112 162.6 112 240C112 317.4 178.6 384 256 384C333.4 384 400 317.4 400 240C400 162.6 333.4 96 256 96ZM256 352C197.4 352 144 298.6 144 240C144 181.4 197.4 128 256 128C314.6 128 368 181.4 368 240C368 298.6 314.6 352 256 352Z" fill="#A3E635"/>
<path d="M304 200H209C200.72 200 194.68 210.08 199.68 217.6L222.4 252.8C227.4 260.32 221.28 272 212.96 272H216H240H264C286.08 272 304 254.08 304 232C304 213.76 291.52 200 274.24 200H256H224V224H256C264.8 224 272 231.2 272 240C272 248.8 264.8 256 256 256H232.8L208.8 216.8C207.28 214.48 207.96 211.32 209.92 209.68C211.88 208.04 214.6 208.24 216.32 209.84L230.72 224H208C199.2 224 192 231.2 192 240C192 248.8 199.2 256 208 256H235.04C243.32 256 249.32 245.92 244.32 238.4L221.6 203.2C216.6 195.68 222.72 184 231.04 184H304C312.8 184 320 191.2 320 200C320 208.8 312.8 216 304 216C295.2 216 288 208.8 288 200C288 195.6 291.6 192 296 192H304V200Z" fill="#A3E635"/>
<path d="M293.19 336C292.11 332.48 288.63 330 284.94 330H227.06C223.37 330 219.89 332.48 218.81 336H293.19Z" fill="#A3E635"/>
</g>
</svg>
